<svg width="19" height="19" viewBox="0 0 19 19" fill="none" xmlns="http://www.w3.org/2000/svg">
<path d="M2.17188 3.34483C2.17188 2.04981 3.22169 1 4.5167 1H14.4822C15.7773 1 16.827 2.04981 16.827 3.34483V18H2.17188V3.34483Z" stroke="#0D44EA" stroke-width="1.5" stroke-linecap="round" stroke-linejoin="round"/>
<path d="M18 18H1" stroke="#0D44EA" stroke-width="1.5" stroke-linecap="round" stroke-linejoin="round"/>
<path d="M6.8623 13.8966C6.8623 12.6015 7.91208 11.5518 9.20713 11.5518H9.79334C11.0884 11.5518 12.1382 12.6015 12.1382 13.8966V18H6.8623V13.8966Z" stroke="#0D44EA" stroke-width="1.5" stroke-linecap="round" stroke-linejoin="round"/>
<path d="M7.15484 8.32749C7.80234 8.32749 8.32725 7.80259 8.32725 7.15508C8.32725 6.50757 7.80234 5.98267 7.15484 5.98267C6.50733 5.98267 5.98242 6.50757 5.98242 7.15508C5.98242 7.80259 6.50733 8.32749 7.15484 8.32749Z" fill="#0D44EA"/>
<path d="M11.8443 8.32749C12.4918 8.32749 13.0167 7.80259 13.0167 7.15508C13.0167 6.50757 12.4918 5.98267 11.8443 5.98267C11.1968 5.98267 10.6719 6.50757 10.6719 7.15508C10.6719 7.80259 11.1968 8.32749 11.8443 8.32749Z" fill="#0D44EA"/>
</svg>
