<svg width="20" height="24" viewBox="0 0 20 24" fill="none" xmlns="http://www.w3.org/2000/svg">
<path d="M10 13C11.3807 13 12.5 11.8807 12.5 10.5C12.5 9.11929 11.3807 8 10 8C8.61929 8 7.5 9.11929 7.5 10.5C7.5 11.8807 8.61929 13 10 13Z" fill="#0D44EA"/>
<path fill-rule="evenodd" clip-rule="evenodd" d="M17.0711 2.92893C13.1658 -0.976311 6.83418 -0.976311 2.92893 2.92893C-0.976311 6.83418 -0.976311 13.1658 2.92893 17.0711L2.95663 17.0987L8.33224 22.4743C9.25336 23.3954 10.7468 23.3954 11.6679 22.4743L17.0711 17.0711C20.9763 13.1658 20.9763 6.83415 17.0711 2.92893ZM3.98959 3.98959C7.30905 0.670136 12.691 0.670136 16.0104 3.98959C19.3298 7.30903 19.3299 12.691 16.0105 16.0104L10.6073 21.4136C10.2719 21.749 9.72824 21.749 9.3929 21.4136L4.01526 16.036L4.01322 16.0339L3.98959 16.0104C0.670136 12.691 0.670136 7.30905 3.98959 3.98959Z" fill="#0D44EA"/>
</svg>
